<svg width="147" height="134" viewBox="0 0 147 134" fill="none" xmlns="http://www.w3.org/2000/svg">
<path d="M19.7962 88.2592C19.9624 88.7283 19.9416 88.9225 20.0417 89.0901C29.1067 98.6678 40.1707 104.078 53.479 104.131C56.8395 104.152 60.1359 103.303 63.2131 101.744C69.8376 98.4582 73.3882 91.5495 72.2378 84.2811C71.6597 80.4896 70.4435 76.9644 67.6755 74.1586C65.8706 74.3016 64.0789 74.5048 62.3684 74.5007C59.578 74.4805 57.099 73.5705 55.2279 71.3897C53.8042 69.8059 53.4075 67.9969 54.1626 66.8202C55.1536 65.2757 56.8452 64.9048 58.4066 65.3841C60.5778 66.0455 62.6811 66.9747 64.6768 67.9907C65.9626 68.6568 67.1332 69.664 68.2774 70.5507C74.8793 68.0288 76.3645 60.9409 71.8327 53.8452C70.8132 53.816 69.7333 53.7999 68.7005 53.7104C64.8717 53.286 61.6639 51.651 59.6019 48.3112C58.8145 47.0303 58.3027 45.5626 59.307 44.0784C60.0753 42.962 61.7669 42.5911 63.67 43.1849C66.672 44.1699 69.0604 46.1109 71.2469 48.2858C71.9889 49.0711 72.731 49.8564 73.4126 50.6549C83.7205 47.1307 89.136 36.0212 82.871 27.6624C83.6696 27.5504 84.3209 27.3444 84.7363 27.5061C85.2253 27.7149 85.6124 28.3252 85.8522 28.8414C87.9426 33.7549 88.383 38.651 85.4968 43.3917C83.3656 46.9558 80.4187 49.6875 76.8432 51.8618C76.3391 52.1619 75.835 52.4621 75.3442 52.8225C75.2838 52.8357 75.2498 52.9695 75.1215 53.2505C75.3009 53.7799 75.4463 54.4432 75.7126 55.08C78.7529 62.8819 77.5036 67.5798 70.7716 72.9741C71.1719 73.6447 71.5987 74.4359 72.0726 75.1536C74.6614 79.4522 75.8003 84.0688 75.2608 89.1165C74.4026 97.3309 68.9017 103.719 60.6836 106.09C56.2187 107.385 51.6971 107.555 47.1111 106.854C36.0286 105.113 26.5657 100.362 19.1678 91.7465C18.76 91.3303 18.3993 90.8406 17.9915 90.4244C17.9179 90.3774 17.7838 90.3436 17.3817 90.2422C17.3479 92.3983 17.9522 94.2882 18.4961 96.1912C18.9664 98.0473 19.5707 99.9371 20.1411 101.961C18.5307 102.124 17.7415 101.413 17.1542 100.467C16.5273 99.3405 15.7796 98.2404 15.4547 97.0477C14.6199 93.818 13.8323 90.5148 13.2864 87.1586C12.8991 84.526 14.13 83.4978 16.4956 84.1798C21.5083 85.6718 26.5342 87.2242 31.5601 88.7765C32.3776 89.0396 33.1008 89.4498 34.092 89.9277C33.0141 91.3648 31.9417 91.0943 30.943 90.8709C27.3104 89.8979 23.7176 89.1057 19.7962 88.2592ZM61.5161 45.49C62.9721 49.5314 66.1988 51.5414 69.9841 50.901C67.5635 48.5247 65.3506 46.2292 61.5161 45.49ZM56.6208 67.9244C58.2467 71.2966 61.0334 72.4551 64.6393 71.2852C62.2037 69.4178 59.955 67.8253 56.6208 67.9244Z" fill="white"/>
</svg>
