<svg width="34" height="24" viewBox="0 0 34 24" fill="none" xmlns="http://www.w3.org/2000/svg">
<path d="M8.29165 18.3637C9.60299 18.3637 10.8788 18.5124 12.1191 18.8098C13.3594 19.1071 14.5905 19.5735 15.8125 20.2089V4.64348C14.7001 3.91881 13.4964 3.37531 12.2013 3.01296C10.9062 2.65061 9.60299 2.46944 8.29165 2.46944C7.34165 2.46944 6.45407 2.54403 5.62892 2.69321C4.80376 2.84241 3.95577 3.08651 3.08494 3.4255C2.96313 3.46611 2.87685 3.52448 2.8261 3.60062C2.77535 3.67675 2.74998 3.76048 2.74998 3.85181V18.8265C2.74998 18.9686 2.80073 19.0726 2.90222 19.1386C3.00374 19.2046 3.1154 19.2122 3.23721 19.1614C3.98827 18.9057 4.78094 18.7088 5.61522 18.5707C6.44951 18.4327 7.34165 18.3637 8.29165 18.3637ZM18.1874 20.2089C19.4095 19.5735 20.6406 19.1071 21.8809 18.8098C23.1212 18.5124 24.397 18.3637 25.7083 18.3637C26.6583 18.3637 27.5505 18.4327 28.3847 18.5707C29.219 18.7088 30.0117 18.9057 30.7627 19.1614C30.8846 19.2122 30.9962 19.2046 31.0977 19.1386C31.1992 19.0726 31.25 18.9686 31.25 18.8265V3.85181C31.25 3.76048 31.2246 3.67928 31.1739 3.60822C31.1231 3.53715 31.0368 3.47624 30.915 3.4255C30.0442 3.08651 29.1962 2.84241 28.371 2.69321C27.5459 2.54403 26.6583 2.46944 25.7083 2.46944C24.397 2.46944 23.0938 2.65061 21.7987 3.01296C20.5036 3.37531 19.2998 3.91881 18.1874 4.64348V20.2089ZM17 23.0284C16.6914 23.0284 16.4027 22.9898 16.1337 22.9127C15.8648 22.8355 15.6105 22.733 15.371 22.6051C14.2809 21.988 13.1406 21.5227 11.9501 21.209C10.7595 20.8954 9.54005 20.7386 8.29165 20.7386C7.32542 20.7386 6.37645 20.8457 5.44474 21.0598C4.513 21.274 3.61476 21.5891 2.75002 22.0052C2.18572 22.2651 1.64881 22.224 1.1393 21.8819C0.629806 21.5399 0.375061 21.0552 0.375061 20.428V3.23677C0.375061 2.89574 0.462844 2.57553 0.638409 2.27612C0.814001 1.97671 1.06724 1.76103 1.39813 1.62909C2.46992 1.10741 3.58687 0.721219 4.74898 0.470524C5.91109 0.21983 7.09198 0.0944824 8.29165 0.0944824C9.83236 0.0944824 11.3375 0.305091 12.8072 0.726311C14.2768 1.1475 15.6744 1.76916 17 2.59128C18.3255 1.76916 19.7231 1.1475 21.1928 0.726311C22.6624 0.305091 24.1676 0.0944824 25.7083 0.0944824C26.908 0.0944824 28.0889 0.21983 29.251 0.470524C30.4131 0.721219 31.53 1.10741 32.6018 1.62909C32.9327 1.76103 33.186 1.97671 33.3616 2.27612C33.5371 2.57553 33.6249 2.89574 33.6249 3.23677V20.428C33.6249 21.0552 33.36 21.5348 32.8302 21.8667C32.3004 22.1986 31.7432 22.2346 31.1586 21.9748C30.304 21.5688 29.4184 21.2613 28.5019 21.0522C27.5855 20.8432 26.6543 20.7386 25.7083 20.7386C24.4599 20.7386 23.2404 20.8954 22.0499 21.209C20.8593 21.5227 19.719 21.988 18.629 22.6051C18.3894 22.733 18.1352 22.8355 17.8662 22.9127C17.5973 22.9898 17.3085 23.0284 17 23.0284ZM20.0753 7.03067C20.0753 6.85407 20.1382 6.67342 20.2641 6.4887C20.3899 6.30397 20.533 6.17711 20.6934 6.1081C21.479 5.79344 22.2874 5.55492 23.1187 5.39255C23.9499 5.23016 24.8131 5.14896 25.7083 5.14896C26.2259 5.14896 26.7268 5.1794 27.2109 5.24028C27.6951 5.30118 28.1828 5.38441 28.674 5.48997C28.8608 5.53259 29.0221 5.63408 29.1581 5.79444C29.2941 5.95481 29.3621 6.14156 29.3621 6.35471C29.3621 6.71196 29.25 6.9733 29.0257 7.13873C28.8014 7.30417 28.5106 7.34425 28.1533 7.25899C27.7738 7.17982 27.3795 7.12299 26.9704 7.0885C26.5614 7.05398 26.1407 7.03673 25.7083 7.03673C24.941 7.03673 24.1894 7.11031 23.4536 7.25748C22.7177 7.40465 22.0159 7.60409 21.348 7.85578C20.9745 7.99992 20.669 7.99181 20.4315 7.83144C20.194 7.67108 20.0753 7.40415 20.0753 7.03067ZM20.0753 15.6781C20.0753 15.5015 20.1382 15.3183 20.2641 15.1285C20.3899 14.9387 20.533 14.8093 20.6934 14.7403C21.4587 14.4256 22.2671 14.1897 23.1187 14.0324C23.9702 13.875 24.8334 13.7964 25.7083 13.7964C26.2259 13.7964 26.7268 13.8268 27.2109 13.8877C27.6951 13.9486 28.1828 14.0318 28.674 14.1374C28.8608 14.18 29.0221 14.2815 29.1581 14.4419C29.2941 14.6022 29.3621 14.789 29.3621 15.0021C29.3621 15.3594 29.25 15.6207 29.0257 15.7861C28.8014 15.9516 28.5106 15.9917 28.1533 15.9064C27.7738 15.8273 27.3795 15.7704 26.9704 15.7359C26.5614 15.7014 26.1407 15.6841 25.7083 15.6841C24.9511 15.6841 24.2072 15.7562 23.4764 15.9003C22.7456 16.0445 22.0463 16.2475 21.3785 16.5093C21.005 16.6636 20.6944 16.6595 20.4468 16.4971C20.1991 16.3347 20.0753 16.0617 20.0753 15.6781ZM20.0753 11.3696C20.0753 11.193 20.1382 11.0123 20.2641 10.8276C20.3899 10.6429 20.533 10.516 20.6934 10.447C21.479 10.1324 22.2874 9.89388 23.1187 9.73148C23.9499 9.56908 24.8131 9.48788 25.7083 9.48788C26.2259 9.48788 26.7268 9.51834 27.2109 9.57924C27.6951 9.64012 28.1828 9.72334 28.674 9.82889C28.8608 9.87154 29.0221 9.97303 29.1581 10.1334C29.2941 10.2937 29.3621 10.4805 29.3621 10.6936C29.3621 11.0509 29.25 11.3122 29.0257 11.4777C28.8014 11.6431 28.5106 11.6832 28.1533 11.598C27.7738 11.5188 27.3795 11.4619 26.9704 11.4274C26.5614 11.3929 26.1407 11.3757 25.7083 11.3757C24.941 11.3757 24.1894 11.4492 23.4536 11.5964C22.7177 11.7436 22.0159 11.943 21.348 12.1948C20.9745 12.3389 20.669 12.3307 20.4315 12.1704C20.194 12.01 20.0753 11.7431 20.0753 11.3696Z" fill="#D697FD"/>
</svg>
