<svg width="392" height="160" viewBox="0 0 392 160" fill="none" xmlns="http://www.w3.org/2000/svg">
<path d="M29.9737 41.5047C23.3763 23.3894 39.0679 5.00448 57.9947 8.67423L202.618 36.7156L342.611 48.7306C366.868 50.8124 381.816 76.4387 372.289 98.8429C370.059 104.088 369.168 109.895 369.766 115.564C372.093 137.65 352.7 155.86 330.803 152.148L188.065 127.95L48.5451 112.349C26.1132 109.841 14.0481 84.7155 26.1158 65.6406L27.6291 63.2485C31.7371 56.7552 32.603 48.7244 29.9737 41.5047Z" fill="white"/>
<path d="M66.7504 59.753L76.0787 61.064L75.586 64.5696L61.445 62.5822L61.8959 59.3737L73.1355 46.6542L63.8666 45.3515L64.3593 41.846L78.5003 43.8334L78.0494 47.0418L66.7504 59.753ZM79.2218 56.6283C79.4556 54.9646 79.9897 53.5351 80.8242 52.3396C81.6786 51.1469 82.7189 50.2832 83.9452 49.7487C85.1913 49.217 86.5175 49.0499 87.9237 49.2475C89.1516 49.4201 90.1863 49.818 91.0278 50.4412C91.889 51.0671 92.544 51.7954 92.9928 52.6259L93.3227 50.279L97.5115 50.8677L95.1984 67.3259L91.0096 66.7372L91.3478 64.3309C90.7045 65.0281 89.8713 65.5674 88.8483 65.9488C87.8479 66.3131 86.7337 66.4089 85.5057 66.2364C84.1194 66.0415 82.9019 65.5069 81.8534 64.6324C80.8247 63.7608 80.0641 62.634 79.5717 61.252C79.1018 59.853 78.9852 58.3117 79.2218 56.6283ZM92.1661 58.5081C92.3081 57.498 92.2311 56.6087 91.9352 55.84C91.6421 55.0515 91.1853 54.4218 90.5648 53.9509C89.9471 53.4601 89.252 53.1605 88.4796 53.0519C87.7072 52.9434 86.9678 53.0313 86.2613 53.3158C85.5548 53.6002 84.9422 54.0796 84.4233 54.754C83.9269 55.4113 83.6092 56.2351 83.47 57.2253C83.3309 58.2156 83.4064 59.1149 83.6968 59.9232C84.0097 60.7144 84.4651 61.354 85.063 61.842C85.6807 62.3327 86.3659 62.631 87.1185 62.7367C87.8909 62.8453 88.6402 62.7588 89.3665 62.4771C90.0956 62.1756 90.7082 61.6962 91.2046 61.0389C91.7037 60.3618 92.0242 59.5182 92.1661 58.5081ZM105.374 54.578C106.031 53.7817 106.82 53.1958 107.741 52.8204C108.682 52.4477 109.707 52.3393 110.817 52.4952L110.203 56.8623L109.104 56.7078C107.796 56.5241 106.763 56.6919 106.003 57.2112C105.263 57.7333 104.786 58.7569 104.572 60.2819L103.42 68.4813L99.2605 67.8968L101.574 51.4386L105.733 52.0231L105.374 54.578ZM115.969 51.4623C115.237 51.3593 114.655 51.0452 114.223 50.5201C113.815 49.978 113.659 49.3603 113.757 48.6672C113.854 47.974 114.173 47.433 114.712 47.0443C115.274 46.6386 115.921 46.4872 116.654 46.5902C117.387 46.6932 117.957 47.0157 118.366 47.5578C118.797 48.083 118.964 48.6921 118.867 49.3853C118.769 50.0785 118.439 50.6279 117.878 51.0337C117.338 51.4224 116.702 51.5653 115.969 51.4623ZM117.744 53.7111L115.431 70.1694L111.271 69.5848L113.584 53.1266L117.744 53.7111ZM131.007 55.3327C132.967 55.6083 134.464 56.4548 135.497 57.8724C136.532 59.2701 136.894 61.0781 136.583 63.2963L135.226 72.9514L131.066 72.3668L132.344 63.2762C132.528 61.969 132.342 60.9229 131.785 60.1379C131.232 59.333 130.391 58.8513 129.262 58.6926C128.113 58.5312 127.152 58.7597 126.379 59.378C125.628 59.9793 125.16 60.9336 124.977 62.2407L123.699 71.3314L119.54 70.7469L121.853 54.2886L126.012 54.8731L125.724 56.923C126.379 56.2879 127.16 55.8322 128.067 55.5558C128.997 55.2623 129.977 55.188 131.007 55.3327ZM139.276 65.0684C139.51 63.4047 140.044 61.9752 140.879 60.7797C141.733 59.587 142.773 58.7233 144 58.1888C145.246 57.6571 146.572 57.49 147.978 57.6876C149.206 57.8602 150.241 58.2581 151.082 58.8812C151.943 59.5072 152.598 60.2354 153.047 61.066L153.377 58.7191L157.566 59.3078L155.253 75.766L151.064 75.1773L151.402 72.771C150.759 73.4682 149.926 74.0075 148.903 74.3888C147.902 74.7531 146.788 74.849 145.56 74.6764C144.174 74.4816 142.956 73.947 141.908 73.0725C140.879 72.2009 140.118 71.0741 139.626 69.6921C139.156 68.2931 139.04 66.7518 139.276 65.0684ZM152.22 66.9482C152.362 65.9381 152.285 65.0487 151.99 64.2801C151.696 63.4916 151.24 62.8619 150.619 62.391C150.001 61.9002 149.306 61.6006 148.534 61.492C147.762 61.3835 147.022 61.4714 146.316 61.7559C145.609 62.0403 144.996 62.5197 144.478 63.194C143.981 63.8514 143.664 64.6752 143.524 65.6654C143.385 66.6557 143.461 67.555 143.751 68.3632C144.064 69.1545 144.519 69.7941 145.117 70.2821C145.735 70.7728 146.42 71.0711 147.173 71.1768C147.945 71.2854 148.695 71.1988 149.421 70.9172C150.15 70.6157 150.763 70.1363 151.259 69.479C151.758 68.8019 152.079 67.9583 152.22 66.9482ZM173.467 57.1801L170.553 77.9163L166.394 77.3318L169.308 56.5956L173.467 57.1801ZM180.923 79.6463C179.576 79.4571 178.401 79.0496 177.398 78.424C176.399 77.7785 175.64 76.9953 175.123 76.0745C174.626 75.1563 174.419 74.1881 174.502 73.1696L178.69 73.7584C178.681 74.4033 178.914 74.9712 179.39 75.4623C179.886 75.9562 180.54 76.2601 181.352 76.3743C182.144 76.4856 182.781 76.4134 183.261 76.1578C183.761 75.9049 184.046 75.5309 184.115 75.0358C184.191 74.5011 183.969 74.066 183.451 73.7306C182.955 73.3781 182.135 72.96 180.991 72.4761C179.805 72.0064 178.838 71.5575 178.09 71.1293C177.363 70.7038 176.757 70.124 176.275 69.3897C175.812 68.6581 175.659 67.7378 175.815 66.6287C175.943 65.7177 176.317 64.9221 176.938 64.2418C177.578 63.5644 178.414 63.076 179.446 62.7767C180.498 62.4801 181.687 62.4251 183.014 62.6116C184.975 62.8871 186.47 63.6022 187.499 64.7567C188.531 65.8913 188.99 67.2989 188.875 68.9792L184.894 68.4197C184.926 67.7578 184.721 67.2039 184.279 66.758C183.859 66.2951 183.244 66.0066 182.431 65.8925C181.679 65.7867 181.075 65.8432 180.62 66.062C180.185 66.2836 179.933 66.642 179.863 67.1372C179.785 67.6917 180.003 68.1565 180.516 68.5315C181.031 68.8867 181.852 69.295 182.979 69.7563C184.126 70.2204 185.063 70.6651 185.791 71.0906C186.519 71.516 187.113 72.1044 187.572 72.8557C188.055 73.59 188.23 74.5032 188.096 75.5953C187.963 76.5459 187.576 77.36 186.935 78.0374C186.314 78.7177 185.478 79.2061 184.427 79.5026C183.398 79.7821 182.23 79.83 180.923 79.6463ZM213.636 66.9456C215.656 67.2295 217.193 68.0816 218.245 69.5019C219.321 70.9052 219.702 72.716 219.39 74.9342L218.034 84.5893L213.874 84.0047L215.152 74.9141C215.333 73.6267 215.144 72.6004 214.585 71.8352C214.029 71.0502 213.186 70.5783 212.057 70.4197C210.928 70.261 209.979 70.4809 209.208 71.0795C208.46 71.661 207.995 72.5955 207.814 73.8828L206.537 82.9735L202.377 82.3889L203.655 73.2983C203.836 72.0109 203.647 70.9846 203.088 70.2194C202.532 69.4344 201.689 68.9625 200.56 68.8039C199.412 68.6424 198.452 68.861 197.681 69.4595C196.933 70.041 196.468 70.9755 196.287 72.2628L195.01 81.3535L190.851 80.769L193.164 64.3107L197.323 64.8952L197.043 66.8857C197.675 66.2676 198.435 65.819 199.323 65.5398C200.23 65.2634 201.189 65.1962 202.199 65.3381C203.486 65.5191 204.596 65.9578 205.528 66.6543C206.463 67.331 207.137 68.2133 207.549 69.3013C208.218 68.4258 209.097 67.7719 210.188 67.3395C211.298 66.9099 212.448 66.7786 213.636 66.9456ZM229.251 86.4384C227.666 86.2157 226.289 85.6687 225.119 84.7974C223.952 83.9063 223.092 82.7655 222.54 81.3752C222.008 79.9876 221.86 78.4521 222.097 76.7687C222.334 75.0852 222.909 73.6513 223.823 72.467C224.756 71.2854 225.915 70.4385 227.3 69.9262C228.688 69.3941 230.174 69.2394 231.758 69.4621C233.342 69.6848 234.728 70.2431 235.915 71.137C237.105 72.0111 237.976 73.1433 238.528 74.5337C239.1 75.9268 239.267 77.4651 239.031 79.1485C238.794 80.832 238.199 82.2631 237.246 83.4419C236.312 84.6235 235.142 85.4789 233.734 86.0082C232.35 86.5205 230.855 86.6639 229.251 86.4384ZM229.76 82.814C230.513 82.9198 231.241 82.8404 231.945 82.5757C232.671 82.2941 233.284 81.8147 233.783 81.1375C234.282 80.4604 234.605 79.597 234.753 78.5473C234.973 76.9827 234.725 75.726 234.01 74.7773C233.318 73.8115 232.377 73.2452 231.189 73.0781C230.001 72.9111 228.941 73.1964 228.009 73.9339C227.1 74.6544 226.535 75.7969 226.316 77.3616C226.096 78.9262 226.312 80.1886 226.965 81.1488C227.64 82.0919 228.572 82.647 229.76 82.814ZM245.623 69.6839C244.89 69.5809 244.308 69.2669 243.877 68.7418C243.468 68.1996 243.313 67.582 243.41 66.8888C243.508 66.1956 243.826 65.6546 244.365 65.2659C244.927 64.8602 245.575 64.7088 246.308 64.8118C247.04 64.9148 247.611 65.2373 248.02 65.7795C248.451 66.3046 248.618 66.9137 248.52 67.6069C248.423 68.3001 248.093 68.8496 247.531 69.2553C246.992 69.644 246.356 69.7869 245.623 69.6839ZM247.397 71.9327L245.084 88.391L240.925 87.8064L243.238 71.3482L247.397 71.9327ZM256.442 67.5691L253.352 89.553L249.193 88.9685L252.283 66.9845L256.442 67.5691ZM264.732 91.425C263.148 91.2023 261.771 90.6553 260.6 89.784C259.433 88.8929 258.574 87.7521 258.022 86.3618C257.49 84.9742 257.342 83.4387 257.578 81.7553C257.815 80.0718 258.39 78.6379 259.304 77.4535C260.237 76.272 261.397 75.4251 262.781 74.9128C264.169 74.3807 265.655 74.226 267.239 74.4487C268.824 74.6714 270.21 75.2297 271.397 76.1236C272.587 76.9977 273.458 78.1299 274.009 79.5203C274.581 80.9134 274.749 82.4517 274.512 84.1351C274.275 85.8186 273.68 87.2497 272.727 88.4285C271.794 89.6101 270.623 90.4655 269.216 90.9948C267.831 91.5071 266.337 91.6505 264.732 91.425ZM265.242 87.8006C265.994 87.9064 266.722 87.827 267.426 87.5623C268.152 87.2806 268.765 86.8013 269.264 86.1241C269.763 85.447 270.087 84.5836 270.234 83.5339C270.454 81.9693 270.206 80.7126 269.492 79.7639C268.799 78.7981 267.859 78.2317 266.671 78.0647C265.482 77.8977 264.422 78.183 263.49 78.9205C262.581 79.641 262.017 80.7835 261.797 82.3481C261.577 83.9128 261.793 85.1752 262.446 86.1354C263.122 87.0785 264.053 87.6336 265.242 87.8006ZM283.808 89.9252L289.741 77.8838L294.168 78.5059L285.764 94.1082L280.714 93.3984L276.967 76.0884L281.423 76.7147L283.808 89.9252ZM305.657 79.8783C307.618 80.1539 309.115 81.0004 310.148 82.4179C311.183 83.8157 311.545 85.6236 311.233 87.8418L309.876 97.4969L305.717 96.9124L306.995 87.8218C307.179 86.5146 306.992 85.4685 306.436 84.6835C305.883 83.8786 305.042 83.3969 303.913 83.2382C302.764 83.0768 301.803 83.3052 301.029 83.9236C300.278 84.5249 299.811 85.4792 299.627 86.7863L298.35 95.877L294.191 95.2924L296.504 78.8342L300.663 79.4187L300.375 81.4686C301.029 80.8335 301.81 80.3778 302.718 80.1014C303.648 79.8079 304.628 79.7336 305.657 79.8783ZM313.927 89.6139C314.161 87.9503 314.695 86.5207 315.529 85.3252C316.384 84.1325 317.424 83.2689 318.65 82.7344C319.896 82.2026 321.223 82.0356 322.629 82.2332C323.857 82.4058 324.891 82.8036 325.733 83.4268C326.594 84.0528 327.249 84.781 327.698 85.6116L328.028 83.2646L332.217 83.8533L329.904 100.312L325.715 99.7229L326.053 97.3165C325.41 98.0138 324.576 98.5531 323.553 98.9344C322.553 99.2987 321.439 99.3946 320.211 99.222C318.825 99.0272 317.607 98.4925 316.559 97.6181C315.53 96.7464 314.769 95.6196 314.277 94.2376C313.807 92.8386 313.69 91.2974 313.927 89.6139ZM326.871 91.4937C327.013 90.4837 326.936 89.5943 326.64 88.8256C326.347 88.0372 325.89 87.4075 325.27 86.9365C324.652 86.4458 323.957 86.1461 323.185 86.0376C322.412 85.929 321.673 86.017 320.966 86.3014C320.26 86.5859 319.647 87.0653 319.128 87.7396C318.632 88.3969 318.314 89.2207 318.175 90.211C318.036 91.2013 318.112 92.1005 318.402 92.9088C318.715 93.7001 319.17 94.3397 319.768 94.8276C320.386 95.3184 321.071 95.6166 321.824 95.7224C322.596 95.831 323.345 95.7444 324.072 95.4627C324.801 95.1613 325.413 94.6819 325.91 94.0245C326.409 93.3474 326.729 92.5038 326.871 91.4937Z" fill="black"/>
<path d="M89.7258 89.286C89.7494 89.98 89.9492 90.5413 90.3253 90.9698C90.7132 91.4 91.2755 91.6668 92.0123 91.7704C92.9986 91.909 93.7777 91.6247 94.3497 90.9174C94.9336 90.2118 95.3423 88.9423 95.5757 87.109C95.251 87.6086 94.7758 87.972 94.1501 88.1992C93.5261 88.4144 92.8575 88.4719 92.1446 88.3717C91.3484 88.2598 90.6579 87.9992 90.0732 87.5898C89.502 87.1703 89.0825 86.6205 88.8145 85.9406C88.5465 85.2607 88.4751 84.4751 88.6004 83.5839C88.7791 82.3124 89.2911 81.3422 90.1364 80.6733C90.9834 79.9926 92.0842 79.7474 93.4389 79.9378C95.1026 80.1716 96.1911 80.876 96.7046 82.0509C97.23 83.2274 97.3424 84.8852 97.0418 87.0242C96.8313 88.5215 96.521 89.7381 96.1107 90.6741C95.7123 91.6118 95.1564 92.291 94.4429 92.7118C93.7413 93.1343 92.8379 93.2679 91.7327 93.1126C90.5207 92.9422 89.6219 92.4826 89.0364 91.7339C88.4509 90.9851 88.1816 90.099 88.2285 89.0756L89.7258 89.286ZM92.6048 87.0368C93.401 87.1487 94.0888 86.9969 94.6683 86.5815C95.2494 86.1543 95.5992 85.5188 95.7178 84.6751C95.8431 83.7838 95.6946 83.0298 95.2723 82.413C94.85 81.7963 94.1873 81.4244 93.2842 81.2975C92.4524 81.1806 91.7502 81.3485 91.1776 81.8012C90.6169 82.2556 90.2764 82.9106 90.1562 83.7662C90.0343 84.6337 90.1802 85.3631 90.5939 85.9544C91.0076 86.5457 91.6779 86.9065 92.6048 87.0368ZM113.187 86.1487L105.286 99.6888L103.611 99.4533L106.197 95.0181L103.616 84.8034L105.416 85.0565L107.369 93.4016L111.512 85.9132L113.187 86.1487ZM115.879 84.9092C115.57 84.8658 115.323 84.7221 115.14 84.4781C114.956 84.2342 114.885 83.9577 114.929 83.6487C114.972 83.3398 115.116 83.0934 115.36 82.9095C115.604 82.7257 115.88 82.6555 116.189 82.6989C116.486 82.7407 116.721 82.8827 116.893 83.125C117.077 83.3689 117.147 83.6454 117.104 83.9544C117.06 84.2633 116.916 84.5097 116.672 84.6936C116.44 84.8791 116.176 84.9509 115.879 84.9092ZM116.44 86.6058L115.067 96.3738L113.445 96.1459L114.818 86.3779L116.44 86.6058ZM121.308 83.7999L119.454 96.9903L117.832 96.7624L119.686 83.572L121.308 83.7999ZM125.694 84.4164L123.84 97.6068L122.218 97.3788L124.072 84.1885L125.694 84.4164ZM129.038 86.7587C128.729 86.7152 128.483 86.5716 128.299 86.3276C128.115 86.0836 128.045 85.8072 128.089 85.4982C128.132 85.1892 128.276 84.9428 128.52 84.759C128.764 84.5752 129.04 84.505 129.349 84.5484C129.646 84.5901 129.881 84.7322 130.053 84.9745C130.236 85.2184 130.307 85.4949 130.263 85.8038C130.22 86.1128 130.076 86.3592 129.832 86.543C129.6 86.7285 129.336 86.8004 129.038 86.7587ZM129.6 88.4553L128.227 98.2233L126.605 97.9953L127.978 88.2273L129.6 88.4553ZM136.446 99.3784L133.22 94.5262L132.614 98.8398L130.992 98.6118L132.845 85.4215L134.467 85.6494L133.378 93.4032L137.747 89.6004L140.011 89.9185L134.728 94.1384L138.656 99.689L136.446 99.3784ZM147.689 92.6153C148.053 92.0969 148.518 91.7199 149.084 91.4845C149.662 91.2507 150.332 91.1872 151.092 91.2941L150.857 92.9696L150.429 92.9095C148.611 92.654 147.563 93.5125 147.286 95.4851L146.539 100.797L144.917 100.569L146.29 90.801L147.912 91.0289L147.689 92.6153ZM161.602 92.953L160.23 102.721L158.607 102.493L158.81 101.049C158.431 101.505 157.942 101.836 157.344 102.043C156.759 102.239 156.134 102.291 155.468 102.197C154.708 102.09 154.046 101.84 153.483 101.446C152.922 101.04 152.508 100.497 152.24 99.8168C151.984 99.1385 151.919 98.3478 152.046 97.4447L152.85 91.723L154.455 91.9484L153.68 97.4563C153.545 98.4188 153.684 99.1958 154.098 99.7871C154.514 100.367 155.143 100.716 155.987 100.834C156.854 100.956 157.575 100.785 158.149 100.32C158.724 99.8555 159.083 99.1122 159.226 98.0903L159.98 92.725L161.602 92.953ZM166.404 103.752C165.655 103.647 165.001 103.428 164.442 103.095C163.885 102.75 163.465 102.327 163.184 101.827C162.905 101.316 162.789 100.76 162.837 100.161L164.512 100.396C164.491 100.89 164.661 101.32 165.022 101.686C165.394 102.053 165.913 102.284 166.579 102.377C167.197 102.464 167.703 102.396 168.098 102.173C168.493 101.95 168.72 101.63 168.778 101.214C168.838 100.786 168.692 100.445 168.34 100.189C167.99 99.9218 167.431 99.6312 166.663 99.3173C165.965 99.0253 165.398 98.7516 164.961 98.4964C164.538 98.2309 164.187 97.8846 163.907 97.4576C163.642 97.0204 163.553 96.4869 163.642 95.857C163.712 95.358 163.925 94.9213 164.28 94.5472C164.636 94.173 165.103 93.9055 165.684 93.7447C166.265 93.5719 166.907 93.5348 167.608 93.6334C168.689 93.7854 169.524 94.1814 170.113 94.8216C170.701 95.4617 170.953 96.2605 170.867 97.2178L169.245 96.9898C169.281 96.4739 169.13 96.0347 168.794 95.6722C168.469 95.3115 167.991 95.0869 167.361 94.9984C166.779 94.9165 166.298 94.9762 165.918 95.1773C165.539 95.3784 165.321 95.681 165.264 96.085C165.219 96.4059 165.282 96.6874 165.454 96.9297C165.64 97.1618 165.878 97.3649 166.168 97.539C166.472 97.703 166.893 97.9014 167.43 98.1344C168.104 98.4231 168.648 98.6933 169.061 98.9453C169.475 99.1853 169.811 99.5112 170.068 99.923C170.337 100.337 170.436 100.841 170.365 101.437C170.289 101.972 170.073 102.432 169.716 102.818C169.359 103.204 168.889 103.484 168.308 103.656C167.739 103.819 167.105 103.851 166.404 103.752ZM180.197 96.9295L179.387 102.687C179.321 103.162 179.374 103.515 179.548 103.746C179.723 103.964 180.06 104.108 180.559 104.179L181.754 104.346L181.561 105.719L180.099 105.513C179.196 105.387 178.548 105.083 178.155 104.604C177.762 104.125 177.632 103.41 177.765 102.459L178.575 96.7015L177.309 96.5237L177.497 95.1868L178.762 95.3647L179.108 92.9048L180.73 93.1328L180.385 95.5926L182.933 95.9509L182.746 97.2877L180.197 96.9295ZM185.96 94.7584C185.651 94.715 185.404 94.5713 185.22 94.3273C185.036 94.0834 184.966 93.8069 185.01 93.4979C185.053 93.189 185.197 92.9426 185.441 92.7587C185.685 92.5749 185.961 92.5047 186.27 92.5481C186.567 92.5899 186.802 92.7319 186.974 92.9742C187.158 93.2181 187.228 93.4946 187.184 93.8036C187.141 94.1125 186.997 94.3589 186.753 94.5428C186.521 94.7283 186.257 94.8002 185.96 94.7584ZM186.521 96.455L185.148 106.223L183.526 105.995L184.899 96.2271L186.521 96.455ZM191.388 93.6492L189.535 106.84L187.913 106.612L189.766 93.4212L191.388 93.6492ZM194.733 95.9914C194.424 95.948 194.177 95.8043 193.993 95.5603C193.81 95.3164 193.739 95.0399 193.783 94.7309C193.826 94.422 193.97 94.1756 194.214 93.9917C194.458 93.8079 194.734 93.7377 195.043 93.7811C195.34 93.8229 195.575 93.9649 195.747 94.2072C195.931 94.4511 196.001 94.7276 195.957 95.0366C195.914 95.3455 195.77 95.5919 195.526 95.7758C195.294 95.9613 195.03 96.0331 194.733 95.9914ZM195.294 97.688L193.921 107.456L192.299 107.228L193.672 97.4601L195.294 97.688ZM205.675 109.272C204.76 109.143 203.958 108.818 203.268 108.297C202.589 107.778 202.09 107.107 201.769 106.287C201.461 105.456 201.379 104.535 201.521 103.525C201.661 102.527 201.998 101.678 202.533 100.978C203.081 100.267 203.758 99.7622 204.564 99.4634C205.371 99.1527 206.238 99.0625 207.165 99.1927C208.092 99.323 208.9 99.6487 209.59 100.17C210.282 100.679 210.789 101.344 211.109 102.165C211.442 102.987 211.538 103.903 211.396 104.913C211.254 105.923 210.903 106.783 210.343 107.492C209.796 108.191 209.113 108.694 208.294 109.003C207.475 109.312 206.602 109.402 205.675 109.272ZM205.876 107.846C206.458 107.927 207.024 107.868 207.573 107.666C208.123 107.465 208.59 107.112 208.976 106.609C209.374 106.107 209.628 105.465 209.738 104.68C209.848 103.896 209.787 103.209 209.555 102.619C209.323 102.029 208.976 101.568 208.513 101.236C208.053 100.893 207.531 100.68 206.949 100.598C206.355 100.515 205.789 100.575 205.251 100.778C204.727 100.971 204.279 101.32 203.905 101.825C203.531 102.33 203.289 102.974 203.178 103.758C203.067 104.555 203.115 105.246 203.323 105.833C203.543 106.421 203.878 106.886 204.327 107.228C204.777 107.558 205.294 107.764 205.876 107.846ZM215.653 96.0415L214.941 99.5586L213.818 99.4007L214.085 95.821L215.653 96.0415ZM215.762 105.509C215.902 104.511 216.227 103.666 216.736 102.974C217.247 102.27 217.883 101.759 218.642 101.442C219.414 101.126 220.239 101.03 221.118 101.154C221.962 101.272 222.672 101.566 223.249 102.035C223.838 102.493 224.244 103.017 224.464 103.605L224.714 101.823L226.354 102.053L224.33 116.456L222.69 116.225L223.595 109.79C223.209 110.294 222.668 110.69 221.973 110.98C221.278 111.27 220.503 111.355 219.647 111.235C218.791 111.115 218.043 110.792 217.402 110.265C216.761 109.739 216.293 109.061 215.997 108.232C215.702 107.403 215.624 106.495 215.762 105.509ZM224.03 106.689C224.134 105.952 224.076 105.29 223.855 104.701C223.635 104.113 223.29 103.64 222.819 103.283C222.361 102.916 221.83 102.69 221.224 102.605C220.617 102.519 220.045 102.584 219.506 102.799C218.967 103.014 218.51 103.374 218.136 103.879C217.762 104.384 217.523 105.005 217.42 105.742C217.315 106.49 217.371 107.165 217.59 107.765C217.81 108.353 218.149 108.831 218.606 109.198C219.065 109.554 219.598 109.774 220.204 109.859C220.81 109.944 221.383 109.879 221.922 109.664C222.475 109.439 222.938 109.074 223.312 108.569C223.687 108.052 223.927 107.426 224.03 106.689ZM230.156 100.97C229.847 100.926 229.601 100.783 229.417 100.539C229.233 100.295 229.163 100.018 229.206 99.7094C229.25 99.4004 229.393 99.154 229.637 98.9702C229.881 98.7863 230.158 98.7161 230.467 98.7595C230.764 98.8013 230.998 98.9433 231.17 99.1856C231.354 99.4296 231.424 99.706 231.381 100.015C231.337 100.324 231.194 100.57 230.95 100.754C230.718 100.94 230.453 101.012 230.156 100.97ZM230.717 102.666L229.345 112.434L227.723 112.206L229.095 102.438L230.717 102.666ZM235.273 104.67L234.463 110.427C234.397 110.903 234.45 111.256 234.624 111.486C234.799 111.704 235.136 111.849 235.635 111.919L236.829 112.087L236.637 113.459L235.175 113.254C234.272 113.127 233.624 112.824 233.231 112.344C232.838 111.865 232.708 111.15 232.841 110.199L233.651 104.442L232.385 104.264L232.573 102.927L233.838 103.105L234.184 100.645L235.806 100.873L235.46 103.333L238.009 103.691L237.822 105.028L235.273 104.67ZM248.638 105.185L247.265 114.953L245.643 114.725L245.846 113.281C245.467 113.737 244.978 114.068 244.379 114.275C243.794 114.471 243.169 114.523 242.503 114.429C241.743 114.322 241.081 114.072 240.519 113.678C239.958 113.272 239.543 112.729 239.275 112.049C239.019 111.371 238.955 110.58 239.081 109.677L239.886 103.955L241.49 104.18L240.716 109.688C240.58 110.651 240.72 111.428 241.133 112.019C241.549 112.599 242.178 112.948 243.022 113.066C243.89 113.188 244.61 113.017 245.185 112.552C245.759 112.088 246.118 111.344 246.261 110.322L247.016 104.957L248.638 105.185ZM253.85 114.352L258.043 106.507L259.772 106.75L254.567 115.979L252.677 115.714L250.218 105.407L251.965 105.653L253.85 114.352ZM260.078 111.755C260.22 110.745 260.546 109.894 261.055 109.202C261.566 108.498 262.207 107.989 262.978 107.673C263.762 107.359 264.617 107.267 265.544 107.397C266.744 107.566 267.689 107.996 268.38 108.687C269.082 109.379 269.486 110.26 269.59 111.329L267.843 111.083C267.76 110.466 267.499 109.95 267.061 109.537C266.634 109.126 266.064 108.87 265.351 108.77C264.424 108.64 263.63 108.855 262.97 109.417C262.311 109.966 261.899 110.824 261.736 111.988C261.57 113.165 261.728 114.114 262.208 114.836C262.688 115.557 263.392 115.983 264.319 116.114C265.032 116.214 265.649 116.131 266.171 115.865C266.693 115.599 267.087 115.17 267.352 114.577L269.099 114.822C268.697 115.784 268.062 116.513 267.192 117.008C266.324 117.492 265.302 117.652 264.126 117.486C263.199 117.356 262.402 117.032 261.736 116.514C261.081 115.998 260.605 115.331 260.308 114.514C260.011 113.697 259.934 112.777 260.078 111.755ZM277.069 108.999C277.805 109.102 278.448 109.356 278.997 109.761C279.548 110.153 279.946 110.688 280.19 111.364C280.446 112.043 280.51 112.833 280.384 113.736L279.574 119.494L277.97 119.268L278.747 113.743C278.884 112.768 278.744 111.991 278.329 111.412C277.915 110.82 277.287 110.466 276.443 110.347C275.587 110.227 274.866 110.398 274.28 110.861C273.706 111.326 273.347 112.069 273.203 113.091L272.444 118.492L270.822 118.264L272.676 105.073L274.298 105.301L273.622 110.114C274.013 109.66 274.507 109.336 275.104 109.141C275.713 108.948 276.367 108.9 277.069 108.999ZM284.658 108.63C284.349 108.586 284.102 108.442 283.918 108.198C283.734 107.954 283.664 107.678 283.708 107.369C283.751 107.06 283.895 106.814 284.139 106.63C284.383 106.446 284.659 106.376 284.968 106.419C285.265 106.461 285.5 106.603 285.672 106.845C285.856 107.089 285.926 107.366 285.882 107.675C285.839 107.984 285.695 108.23 285.451 108.414C285.219 108.599 284.955 108.671 284.658 108.63ZM285.219 110.326L283.846 120.094L282.224 119.866L283.597 110.098L285.219 110.326ZM290.046 121.129C289.297 121.024 288.644 120.805 288.084 120.472C287.527 120.127 287.108 119.704 286.827 119.204C286.547 118.692 286.431 118.137 286.479 117.538L288.155 117.773C288.134 118.267 288.304 118.697 288.664 119.063C289.037 119.43 289.556 119.661 290.221 119.754C290.839 119.841 291.345 119.773 291.74 119.55C292.135 119.326 292.362 119.007 292.42 118.591C292.481 118.163 292.335 117.821 291.983 117.566C291.633 117.299 291.074 117.008 290.306 116.694C289.608 116.402 289.04 116.128 288.603 115.873C288.18 115.608 287.829 115.261 287.55 114.834C287.284 114.397 287.195 113.864 287.284 113.234C287.354 112.735 287.567 112.298 287.922 111.924C288.278 111.55 288.746 111.282 289.326 111.121C289.908 110.949 290.549 110.912 291.25 111.01C292.331 111.162 293.166 111.558 293.755 112.198C294.344 112.839 294.595 113.637 294.509 114.595L292.887 114.367C292.923 113.851 292.773 113.411 292.436 113.049C292.111 112.688 291.633 112.464 291.004 112.375C290.421 112.293 289.94 112.353 289.561 112.554C289.181 112.755 288.963 113.058 288.906 113.462C288.861 113.783 288.924 114.064 289.096 114.307C289.282 114.539 289.52 114.742 289.81 114.916C290.115 115.08 290.535 115.278 291.072 115.511C291.746 115.8 292.29 116.07 292.703 116.322C293.118 116.562 293.453 116.888 293.711 117.3C293.98 117.713 294.078 118.218 294.007 118.814C293.932 119.349 293.715 119.809 293.358 120.195C293.001 120.581 292.532 120.86 291.95 121.033C291.382 121.196 290.747 121.228 290.046 121.129ZM298.357 110.555C298.048 110.511 297.802 110.368 297.618 110.124C297.434 109.88 297.364 109.603 297.407 109.294C297.45 108.985 297.594 108.739 297.838 108.555C298.082 108.371 298.359 108.301 298.668 108.345C298.965 108.386 299.199 108.528 299.371 108.771C299.555 109.015 299.625 109.291 299.582 109.6C299.538 109.909 299.395 110.155 299.151 110.339C298.919 110.525 298.654 110.597 298.357 110.555ZM298.918 112.251L297.545 122.019L295.923 121.791L297.296 112.023L298.918 112.251Z" fill="black" fill-opacity="0.5"/>
</svg>
