<svg width="34" height="28" viewBox="0 0 34 28" fill="none" xmlns="http://www.w3.org/2000/svg">
<path d="M33.8533 10.25C33.8533 11.9998 33.5376 13.6613 32.9063 15.2345C32.275 16.8076 31.4255 18.2265 30.3578 19.4912C30.1122 19.7693 29.8128 19.924 29.4596 19.9555C29.1064 19.987 28.7898 19.8627 28.5098 19.5827C28.2499 19.3227 28.1303 19.0162 28.1512 18.663C28.1722 18.3098 28.2977 17.986 28.5279 17.6917C29.3805 16.6686 30.0448 15.5217 30.5208 14.251C30.9968 12.9802 31.2348 11.6466 31.2348 10.25C31.2348 8.85343 30.9968 7.52789 30.5208 6.27339C30.0448 5.01891 29.3805 3.88012 28.5279 2.85702C28.2823 2.56271 28.1529 2.23799 28.1397 1.88288C28.1265 1.52779 28.2524 1.21215 28.5175 0.935967C28.7761 0.659781 29.0861 0.533353 29.4474 0.55668C29.8087 0.580035 30.1122 0.730754 30.3578 1.00884C31.4255 2.27347 32.275 3.69238 32.9063 5.26555C33.5376 6.83875 33.8533 8.50024 33.8533 10.25ZM26.5273 10.25C26.5273 11.0052 26.4055 11.7309 26.1619 12.4271C25.9184 13.1233 25.5794 13.7607 25.145 14.3392C24.9258 14.6336 24.638 14.7873 24.2818 14.8005C23.9255 14.8137 23.6074 14.6803 23.3275 14.4004C23.0675 14.1404 22.9334 13.8323 22.9253 13.476C22.9172 13.1198 23.0065 12.7783 23.1933 12.4515C23.4023 12.1307 23.5658 11.784 23.6835 11.4113C23.8012 11.0385 23.8601 10.6514 23.8601 10.25C23.8601 9.82981 23.8003 9.43777 23.6806 9.07386C23.5609 8.70999 23.3984 8.3601 23.1933 8.02419C23.0065 7.69739 22.9172 7.35993 22.9253 7.01181C22.9334 6.66369 23.0675 6.35964 23.3275 6.09965C23.6074 5.81969 23.9255 5.68631 24.2818 5.6995C24.638 5.7127 24.9258 5.86645 25.145 6.16077C25.5815 6.74196 25.9211 7.37545 26.1636 8.06124C26.4061 8.74704 26.5273 9.47663 26.5273 10.25ZM12.0216 15.7916C10.4977 15.7916 9.19307 15.249 8.10783 14.1638C7.02261 13.0785 6.48 11.7739 6.48 10.25C6.48 8.72607 7.02261 7.42148 8.10783 6.33624C9.19307 5.251 10.4977 4.70838 12.0216 4.70838C13.5455 4.70838 14.8501 5.251 15.9354 6.33624C17.0206 7.42148 17.5632 8.72607 17.5632 10.25C17.5632 11.7739 17.0206 13.0785 15.9354 14.1638C14.8501 15.249 13.5455 15.7916 12.0216 15.7916ZM0.146667 25.4439V24.3294C0.146667 23.5297 0.350667 22.8055 0.758666 22.1569C1.16669 21.5084 1.73608 21.0065 2.46684 20.6513C3.78223 19.9956 5.25391 19.4481 6.88189 19.0086C8.50987 18.5691 10.2231 18.3494 12.0216 18.3494C13.8201 18.3494 15.5333 18.5691 17.1613 19.0086C18.7893 19.4481 20.261 19.9956 21.5764 20.6513C22.3071 21.0065 22.8765 21.5084 23.2845 22.1569C23.6925 22.8055 23.8965 23.5297 23.8965 24.3294V25.4439C23.8965 26.1117 23.6626 26.6795 23.1947 27.1474C22.7268 27.6153 22.159 27.8493 21.4911 27.8493H2.55207C1.88422 27.8493 1.31635 27.6153 0.84848 27.1474C0.380605 26.6795 0.146667 26.1117 0.146667 25.4439ZM2.52159 25.4743H21.5216V24.3294C21.5216 23.9681 21.4236 23.6586 21.2278 23.4008C21.0319 23.143 20.7847 22.9328 20.4863 22.7705C19.516 22.2752 18.2854 21.8103 16.7944 21.3759C15.3035 20.9415 13.7125 20.7243 12.0216 20.7243C10.3307 20.7243 8.73976 20.9415 7.24879 21.3759C5.75782 21.8103 4.52718 22.2752 3.55689 22.7705C3.25848 22.9328 3.01134 23.143 2.81545 23.4008C2.61954 23.6586 2.52159 23.9681 2.52159 24.3294V25.4743ZM12.0216 13.4167C12.8924 13.4167 13.6379 13.1066 14.258 12.4865C14.8782 11.8663 15.1883 11.1208 15.1883 10.25C15.1883 9.37917 14.8782 8.63369 14.258 8.01355C13.6379 7.39341 12.8924 7.08334 12.0216 7.08334C11.1508 7.08334 10.4053 7.39341 9.78513 8.01355C9.16499 8.63369 8.85492 9.37917 8.85492 10.25C8.85492 11.1208 9.16499 11.8663 9.78513 12.4865C10.4053 13.1066 11.1508 13.4167 12.0216 13.4167Z" fill="#D697FD"/>
</svg>
