<svg width="28" height="28" viewBox="0 0 28 28" fill="none" xmlns="http://www.w3.org/2000/svg">
<path d="M18.75 27.3973L9.24998 24.0723L2.43559 26.7091C1.96872 26.8898 1.53635 26.838 1.13848 26.5539C0.740619 26.2697 0.541687 25.8809 0.541687 25.3877V4.62175C0.541687 4.30915 0.625432 4.02852 0.792922 3.77986C0.960386 3.53119 1.19534 3.35104 1.49778 3.23939L9.24998 0.602539L18.75 3.92754L25.5644 1.2907C26.0312 1.11004 26.4636 1.15419 26.8615 1.42314C27.2593 1.6921 27.4583 2.06814 27.4583 2.55127V23.439C27.4583 23.7617 27.3669 24.0449 27.1842 24.2885C27.0015 24.5321 26.7539 24.7097 26.4413 24.8214L18.75 27.3973ZM17.5625 24.4925V5.96755L10.4374 3.47684V22.0018L17.5625 24.4925ZM19.9374 24.4925L25.0833 22.7874V4.02492L19.9374 5.96755V24.4925ZM2.91665 23.9749L8.06252 22.0018V3.47684L2.91665 5.21242V23.9749Z" fill="#D697FD"/>
</svg>
