<svg width="40" height="41" viewBox="0 0 40 41" fill="none" xmlns="http://www.w3.org/2000/svg">
<rect y="0.5" width="40" height="40" rx="20" fill="white"/>
<path fill-rule="evenodd" clip-rule="evenodd" d="M36.0249 20.5C36.0249 29.4746 28.7495 36.75 19.7749 36.75C10.8003 36.75 3.5249 29.4746 3.5249 20.5C3.5249 11.5254 10.8003 4.25 19.7749 4.25C28.7495 4.25 36.0249 11.5254 36.0249 20.5ZM21.3321 15.5137C18.5404 16.7196 10.491 20.1441 10.491 20.1441C8.58336 20.9158 9.69997 21.6393 9.69997 21.6393C9.69997 21.6393 11.3285 22.2181 12.7244 22.6522C14.1202 23.0863 14.8647 22.604 14.8647 22.604C14.8647 22.604 18.1217 20.3853 21.4252 18.0218C23.7516 16.3819 23.1933 17.7325 22.6349 18.3113C21.4252 19.5653 19.4245 21.5429 17.7494 23.1345C17.005 23.8098 17.3772 24.3886 17.7029 24.678C18.6502 25.5089 20.8812 27.02 21.8941 27.706C22.1748 27.8961 22.3619 28.0229 22.4023 28.0543C22.6349 28.2472 23.9377 29.1154 24.7287 28.9225C25.5197 28.7295 25.6127 27.6202 25.6127 27.6202C25.6127 27.6202 26.2176 23.6651 26.776 20.0476C26.8794 19.3374 26.9828 18.642 27.0792 17.9936C27.3299 16.3083 27.5333 14.9403 27.5669 14.4526C27.7065 12.8127 26.0315 13.488 26.0315 13.488C26.0315 13.488 22.4023 15.0314 21.3321 15.5137Z" fill="#E80BE1"/>
</svg>
